<svg xmlns="http://www.w3.org/2000/svg" viewBox="0 0 16 16" shape-rendering="crispEdges">
  <rect width="16" height="16" fill="#131313"/>

  <rect x="4" y="2" width="8" height="1" fill="#000000"/>
  <rect x="3" y="3" width="10" height="1" fill="#000000"/>
  <rect x="2" y="4" width="1" height="6" fill="#000000"/>
  <rect x="13" y="4" width="1" height="6" fill="#000000"/>
  <rect x="3" y="10" width="10" height="1" fill="#000000"/>
  <rect x="4" y="11" width="8" height="1" fill="#000000"/>

  <rect x="4" y="4" width="8" height="6" fill="#f2c38b"/>
  <rect x="5" y="10" width="6" height="1" fill="#f2c38b"/>

  <rect x="5" y="4" width="6" height="1" fill="#2f1b0c"/>
  <rect x="4" y="5" width="1" height="1" fill="#2f1b0c"/>
  <rect x="11" y="5" width="1" height="1" fill="#2f1b0c"/>

  <rect x="5" y="6" width="1" height="1" fill="#000000"/>
  <rect x="10" y="6" width="1" height="1" fill="#000000"/>

  <rect x="6" y="8" width="1" height="1" fill="#ff6b6b"/>
  <rect x="9" y="8" width="1" height="1" fill="#ff6b6b"/>

  <rect x="6" y="9" width="4" height="1" fill="#8b0000"/>
  <rect x="7" y="10" width="2" height="1" fill="#8b0000"/>
</svg>
